<?xml version="1.0" encoding="UTF-8" standalone="no"?>
<svg
   xmlns:dc="http://purl.org/dc/elements/1.1/"
   xmlns:cc="http://creativecommons.org/ns#"
   xmlns:rdf="http://www.w3.org/1999/02/22-rdf-syntax-ns#"
   xmlns:svg="http://www.w3.org/2000/svg"
   xmlns="http://www.w3.org/2000/svg"
   viewBox="0 0 197.94267 40"
   height="40"
   width="197.94267"
   xml:space="preserve"
   id="svg2"
   version="1.1"><metadata
     id="metadata8"><rdf:RDF><cc:Work
         rdf:about=""><dc:format>image/svg+xml</dc:format><dc:type
           rdf:resource="http://purl.org/dc/dcmitype/StillImage" /></cc:Work></rdf:RDF></metadata><defs
     id="defs6"><clipPath
       id="clipPath18"
       clipPathUnits="userSpaceOnUse"><path
         id="path16"
         d="M 0,30 H 148.457 V 0 H 0 Z" /></clipPath></defs><g
     transform="matrix(1.3333333,0,0,-1.3333333,0,40)"
     id="g10"><g
       id="g12"><g
         clip-path="url(#clipPath18)"
         id="g14"><g
           transform="translate(49.8194,18.374)"
           id="g20"><path
             id="path22"
             style="fill:#ffffff;fill-opacity:1;fill-rule:nonzero;stroke:none"
             d="m 0,0 h -0.006 c -0.261,-0.028 -0.516,-0.042 -0.768,-0.042 -1.104,0 -2.13,0.267 -3.118,0.808 -0.442,0.252 -0.504,0.716 -0.338,1.046 0.154,0.307 0.464,0.433 0.754,0.306 C -2.379,1.66 -1.4,1.393 0.073,1.48 0.372,1.498 0.62,1.248 0.656,0.881 0.693,0.491 0.48,0.063 0,0 m 0,-8.377 h -0.006 c -0.26,-0.028 -0.516,-0.042 -0.768,-0.042 -1.104,0 -2.129,0.267 -3.118,0.808 -0.442,0.252 -0.502,0.738 -0.336,1.069 0.156,0.31 0.465,0.438 0.752,0.312 1.278,-0.564 2.239,-0.745 3.549,-0.666 C 0.372,-6.882 0.62,-7.13 0.656,-7.497 0.693,-7.887 0.48,-8.314 0,-8.377 m 6.396,4.94 C 5.414,-3.876 4.354,-3.934 3.533,-3.934 c -0.322,0 -0.555,0.27 -0.555,0.642 0,0.372 0.233,0.642 0.555,0.642 4.251,0 5.143,2.734 5.143,5.028 0,4.644 -2.663,5.858 -6.96,6.312 -0.911,0.117 -1.936,0.177 -2.995,0.177 -0.207,0 -0.415,-0.003 -0.624,-0.008 -1.474,0 -3.097,-0.086 -4.828,-0.255 -1.957,-0.208 -4.141,-1.786 -4.309,-4.756 -0.196,-4.318 -0.336,-9.052 -0.028,-14.393 0.198,-2.971 2.387,-4.549 4.339,-4.758 1.762,-0.169 3.404,-0.255 4.877,-0.255 1.25,0 2.484,0.059 3.569,0.17 4.95,0.584 7.358,2.668 7.358,6.369 0,3.19 -0.851,4.967 -2.679,5.582" /></g><g
           transform="translate(65.0909,19.7412)"
           id="g24"><path
             id="path26"
             style="fill:#ffffff;fill-opacity:1;fill-rule:nonzero;stroke:none"
             d="M 0,0 C 1.973,0 3.519,1.608 3.519,3.661 3.519,5.702 1.874,7.492 0,7.492 -1.692,7.492 -3.519,6.06 -3.519,3.746 -3.519,1.287 -1.748,0 0,0" /></g><g
           transform="translate(65.0909,17.8311)"
           id="g28"><path
             id="path30"
             style="fill:#ffffff;fill-opacity:1;fill-rule:nonzero;stroke:none"
             d="m 0,0 c -2.047,0 -3.396,-0.827 -3.606,-2.211 -0.54,-3.352 -0.54,-7.041 0,-10.391 0.21,-1.407 1.524,-2.213 3.606,-2.213 1.998,0 3.281,0.807 3.521,2.215 0.568,3.348 0.568,7.037 0,10.385 C 3.28,-0.829 1.964,0 0,0" /></g><g
           transform="translate(82.9112,12.4868)"
           id="g32"><path
             id="path34"
             style="fill:#ffffff;fill-opacity:1;fill-rule:nonzero;stroke:none"
             d="m 0,0 h -0.002 c -3.741,1.377 -5.64,3.276 -6.659,4.295 -0.138,0.114 -0.205,0.288 -0.171,0.467 0.036,0.188 0.185,0.352 0.378,0.415 0.209,0.07 0.428,0.016 0.602,-0.145 1.018,-0.959 1.626,-1.482 2.607,-2.239 0.861,-0.672 1.824,-1.294 3.032,-1.294 1.163,0 3.138,0.333 3.291,2.564 0.053,0.754 -0.188,1.424 -0.719,1.993 -1.411,1.515 -4.554,2.052 -6.817,2.052 -4.32,0 -7.337,-1.728 -7.337,-4.202 0,-2.11 1.291,-3.283 4.184,-3.807 3.208,-0.551 4.865,-2.95 5.566,-4.33 0.108,-0.205 0.108,-0.421 -0.005,-0.59 -0.109,-0.165 -0.314,-0.262 -0.519,-0.243 -0.215,0.019 -0.398,0.155 -0.49,0.365 -1.139,1.868 -2.612,3.889 -5.503,3.889 -1.23,0 -2.149,-0.349 -2.732,-1.037 -0.608,-0.719 -0.828,-1.81 -0.617,-3.073 0.468,-2.886 3.56,-4.75 7.881,-4.75 4.292,0 7.45,1.899 7.678,4.619 C 3.897,-1.875 1.47,-0.523 0,0" /></g><g
           transform="translate(100.002,20.1729)"
           id="g36"><path
             id="path38"
             style="fill:#ffffff;fill-opacity:1;fill-rule:nonzero;stroke:none"
             d="m 0,0 c -1.24,0.279 -2.424,0.417 -3.528,0.417 -2.261,0 -4.192,-0.579 -5.612,-1.71 -1.861,-1.483 -2.81,-3.825 -2.822,-6.961 0,-2.934 0.719,-5.076 2.195,-6.547 1.75,-1.742 4.574,-2.544 8.845,-2.527 1.401,0 2.447,0.34 3.11,1.01 0.585,0.592 0.876,1.455 0.865,2.563 -0.027,2.369 -1.319,3.549 -3.95,3.606 -2.194,0.057 -4.301,1.162 -5.499,2.884 -0.109,0.173 -0.139,0.386 -0.089,0.594 0.036,0.15 0.11,0.273 0.206,0.345 0.125,0.137 0.298,0.213 0.467,0.208 0.158,-0.006 0.297,-0.083 0.392,-0.216 1.247,-1.735 3.272,-2.731 5.553,-2.731 1.65,0 2.717,1.754 3.009,3.385 C 3.573,-3.386 2.773,-0.632 0,0" /></g><g
           transform="translate(121.6602,7.8003)"
           id="g40"><path
             id="path42"
             style="fill:#ffffff;fill-opacity:1;fill-rule:nonzero;stroke:none"
             d="m 0,0 -0.001,9.219 c 0,2.139 -1.368,3.575 -3.404,3.575 -2.036,0 -3.405,-1.436 -3.405,-3.575 V 3.179 C -6.828,2.557 -7.219,2.229 -7.595,2.222 h -0.01 c -0.335,0 -0.707,0.257 -0.744,0.829 L -8.35,9.02 c 0,2.54 -1.374,3.774 -4.202,3.774 -2.914,0 -4.285,-1.2 -4.315,-3.777 -0.011,-0.881 -0.025,-1.705 -0.037,-2.477 -0.06,-3.608 -0.1,-5.991 0.315,-7.699 0.418,-1.642 1.247,-2.565 2.86,-3.184 0.732,-0.298 1.637,-0.442 2.773,-0.442 1.311,0 2.746,0.212 3.894,0.571 -0.193,0.493 -0.392,1.366 -0.486,1.884 -0.046,0.273 0.124,0.523 0.395,0.584 0.039,0.009 0.078,0.014 0.115,0.014 0.221,0 0.408,-0.147 0.476,-0.387 0.032,-0.116 0.058,-0.243 0.087,-0.38 0.23,-1.072 0.543,-2.542 3.126,-2.542 0.63,0 1.269,0.082 2.207,0.281 1.596,0.371 1.407,2.168 1.223,3.905 C 0.05,-0.562 0.021,-0.274 0,0" /></g><g
           transform="translate(128.2257,19.7412)"
           id="g44"><path
             id="path46"
             style="fill:#ffffff;fill-opacity:1;fill-rule:nonzero;stroke:none"
             d="M 0,0 C 1.973,0 3.519,1.608 3.519,3.661 3.519,5.702 1.875,7.492 0,7.492 -1.691,7.492 -3.518,6.06 -3.518,3.746 -3.518,1.287 -1.748,0 0,0" /></g><g
           transform="translate(128.2257,17.8311)"
           id="g48"><path
             id="path50"
             style="fill:#ffffff;fill-opacity:1;fill-rule:nonzero;stroke:none"
             d="m 0,0 c -2.047,0 -3.396,-0.827 -3.605,-2.211 -0.541,-3.352 -0.541,-7.041 -10e-4,-10.391 0.21,-1.407 1.524,-2.213 3.606,-2.213 1.999,0 3.282,0.807 3.521,2.215 0.568,3.348 0.568,7.037 0,10.385 C 3.28,-0.829 1.964,0 0,0" /></g><g
           transform="translate(145.5626,10.6514)"
           id="g52"><path
             id="path54"
             style="fill:#ffffff;fill-opacity:1;fill-rule:nonzero;stroke:none"
             d="m 0,0 h -0.004 c -1.208,0.104 -2.455,-0.65 -3.097,-1.88 -0.128,-0.257 -0.432,-0.365 -0.706,-0.249 -0.227,0.096 -0.413,0.367 -0.284,0.733 0.345,0.847 1.441,1.906 2.718,2.292 0.061,0.429 0.091,0.973 0.091,1.654 v 0.192 l 0.96,0.107 c 2.11,0.237 2.971,1.117 2.971,3.035 0,1.474 -0.423,2.467 -1.259,2.949 -0.561,0.326 -1.585,0.464 -2.961,0.398 l -0.224,-0.01 v 0.31 c -0.273,2.778 -1.371,3.29 -3.434,3.29 -2.15,0 -3.212,-0.495 -3.432,-3.307 C -8.676,9.332 -8.683,9.149 -8.689,8.967 -8.696,8.779 -8.704,8.591 -8.719,8.403 L -8.731,8.238 -8.895,8.208 c -1.88,-0.336 -2.9,-0.911 -2.9,-2.979 0,-1.477 0.412,-2.432 1.26,-2.921 C -10.274,2.16 -9.73,1.91 -9.018,1.91 h 0.215 V 1.268 c 0.172,-5.662 0.657,-9.103 5.911,-9.103 2.659,0 5.597,1.168 5.77,3.732 0.088,1.288 -0.184,2.351 -0.784,3.072 C 1.588,-0.423 0.845,-0.057 0,0" /></g><g
           transform="translate(19.5001,18)"
           id="g56"><path
             id="path58"
             style="fill:#fe9b0c;fill-opacity:1;fill-rule:nonzero;stroke:none"
             d="M 0,0 C -0.828,0 -1.5,0.671 -1.5,1.5 -1.5,2.329 -0.828,3 0,3 0.828,3 1.5,2.329 1.5,1.5 1.5,0.671 0.828,0 0,0 m 0,-9 c -0.828,0 -1.5,0.671 -1.5,1.5 0,0.829 0.672,1.5 1.5,1.5 0.828,0 1.5,-0.671 1.5,-1.5 C 1.5,-8.329 0.828,-9 0,-9 m -9,9 c -0.828,0 -1.5,0.671 -1.5,1.5 0,0.829 0.672,1.5 1.5,1.5 0.828,0 1.5,-0.671 1.5,-1.5 C -7.5,0.671 -8.172,0 -9,0 m 0,-9 c -0.828,0 -1.5,0.671 -1.5,1.5 0,0.829 0.672,1.5 1.5,1.5 0.828,0 1.5,-0.671 1.5,-1.5 C -7.5,-8.329 -8.172,-9 -9,-9 m 19.5,6 c 0,1.792 -0.787,3.4 -2.033,4.5 1.246,1.1 2.033,2.708 2.033,4.5 0,3.313 -2.687,6 -6,6 C 2.707,12 1.1,11.213 0,9.966 -1.1,11.213 -2.707,12 -4.5,12 -6.293,12 -7.9,11.213 -9,9.966 -10.1,11.213 -11.707,12 -13.5,12 c -3.313,0 -6,-2.687 -6,-6 0,-1.792 0.787,-3.4 2.033,-4.5 -1.246,-1.1 -2.033,-2.708 -2.033,-4.5 0,-1.792 0.787,-3.4 2.033,-4.5 -1.246,-1.1 -2.033,-2.708 -2.033,-4.5 0,-3.313 2.687,-6 6,-6 1.793,0 3.4,0.787 4.5,2.034 1.1,-1.247 2.707,-2.034 4.5,-2.034 1.793,0 3.4,0.787 4.5,2.034 C 1.1,-17.213 2.707,-18 4.5,-18 c 3.313,0 6,2.687 6,6 0,1.792 -0.787,3.4 -2.033,4.5 1.246,1.1 2.033,2.708 2.033,4.5" /></g></g></g></g></svg>