<?xml version="1.0" encoding="UTF-8" standalone="no" ?>
<!DOCTYPE svg PUBLIC "-//W3C//DTD SVG 1.1//EN" "http://www.w3.org/Graphics/SVG/1.1/DTD/svg11.dtd">
<svg xmlns="http://www.w3.org/2000/svg" xmlns:xlink="http://www.w3.org/1999/xlink" version="1.1" width="40" height="40" viewBox="0 0 40 40" xml:space="preserve">
<desc>Created with Fabric.js 5.3.0</desc>
<defs>
</defs>
<g transform="matrix(1 0 0 1 98.971335 20)" id="leu6GrlhxZaQ35ENT9EaG"  >
<g style="" vector-effect="non-scaling-stroke"   >
		<g transform="matrix(1.3333333 0 0 -1.3333333 -33.9941651013 -0.037999499)" id="sGhXUqZFnJfpgJyQqgG1X" clip-path="url(#CLIPPATH_30)"  >
<clipPath id="CLIPPATH_30" >
	<path transform="matrix(1 0 0 1 25.4956213577 -0.0285) translate(-74.2285, -15)" id="path16" d="M 0 30 L 148.457 30 L 148.457 0 L 0 0 Z" stroke-linecap="round" />
</clipPath>
<path style="stroke: none; stroke-width: 1; stroke-dasharray: none; stroke-linecap: butt; stroke-dashoffset: 0; stroke-linejoin: miter; stroke-miterlimit: 4; fill: rgb(255,255,255); fill-rule: nonzero; opacity: 1;" vector-effect="non-scaling-stroke"  transform=" translate(1.0865213577, 3.3455)" d="M 0 0 L -0.006 0 C -0.267 -0.028 -0.522 -0.042 -0.774 -0.042 C -1.8780000000000001 -0.042 -2.904 0.225 -3.892 0.766 C -4.334 1.018 -4.396 1.482 -4.2299999999999995 1.812 C -4.076 2.119 -3.7659999999999996 2.245 -3.4759999999999995 2.118 C -2.379 1.66 -1.4 1.393 0.073 1.48 C 0.372 1.498 0.62 1.248 0.656 0.881 C 0.693 0.491 0.48 0.063 0 0 M 0 -8.377 L -0.006 -8.377 C -0.266 -8.405000000000001 -0.522 -8.419 -0.774 -8.419 C -1.8780000000000001 -8.419 -2.903 -8.152000000000001 -3.892 -7.611000000000001 C -4.334 -7.359000000000001 -4.394 -6.873000000000001 -4.228 -6.542000000000001 C -4.072 -6.232000000000001 -3.763 -6.104000000000001 -3.476 -6.23 C -2.198 -6.7940000000000005 -1.237 -6.9750000000000005 0.07299999999999995 -6.896000000000001 C 0.372 -6.882 0.62 -7.13 0.656 -7.497 C 0.693 -7.887 0.48 -8.314 0 -8.377 M 6.396 -3.4370000000000003 C 5.414 -3.876 4.354 -3.934 3.533 -3.934 C 3.211 -3.934 2.9779999999999998 -3.664 2.9779999999999998 -3.2920000000000003 C 2.9779999999999998 -2.9200000000000004 3.211 -2.6500000000000004 3.533 -2.6500000000000004 C 7.784000000000001 -2.6500000000000004 8.676 0.08399999999999963 8.676 2.3779999999999992 C 8.676 7.021999999999999 6.013 8.235999999999999 1.7160000000000002 8.69 C 0.8050000000000002 8.807 -0.21999999999999975 8.866999999999999 -1.279 8.866999999999999 C -1.486 8.866999999999999 -1.694 8.863999999999999 -1.903 8.859 C -3.377 8.859 -5 8.773 -6.731 8.604 C -8.688 8.395999999999999 -10.872 6.818 -11.04 3.847999999999999 C -11.235999999999999 -0.47000000000000064 -11.376 -5.204000000000001 -11.068 -10.545000000000002 C -10.87 -13.516000000000002 -8.681 -15.094000000000001 -6.728999999999999 -15.303 C -4.966999999999999 -15.472000000000001 -3.3249999999999993 -15.558000000000002 -1.8519999999999994 -15.558000000000002 C -0.6019999999999994 -15.558000000000002 0.6320000000000006 -15.499000000000002 1.7170000000000005 -15.388000000000002 C 6.667000000000001 -14.804000000000002 9.075 -12.720000000000002 9.075 -9.019000000000002 C 9.075 -5.829000000000002 8.224 -4.052000000000002 6.395999999999999 -3.437000000000002" stroke-linecap="round" />
</g>
		<g transform="matrix(1.3333333 0 0 -1.3333333 -12.183470503 -11.3162658838)" id="0HEA-c09Xp3EJ1Hvp2838" clip-path="url(#CLIPPATH_31)"  >
<clipPath id="CLIPPATH_31" >
	<path transform="matrix(1 0 0 1 9.1376 -8.4872) translate(-74.2285, -15)" id="path16" d="M 0 30 L 148.457 30 L 148.457 0 L 0 0 Z" stroke-linecap="round" />
</clipPath>
<path style="stroke: none; stroke-width: 1; stroke-dasharray: none; stroke-linecap: butt; stroke-dashoffset: 0; stroke-linejoin: miter; stroke-miterlimit: 4; fill: rgb(255,255,255); fill-rule: nonzero; opacity: 1;" vector-effect="non-scaling-stroke"  transform=" translate(0, -3.746)" d="M 0 0 C 1.973 0 3.519 1.608 3.519 3.661 C 3.519 5.702 1.874 7.492 0 7.492 C -1.692 7.492 -3.519 6.06 -3.519 3.746 C -3.519 1.287 -1.748 0 0 0" stroke-linecap="round" />
</g>
		<g transform="matrix(1.3333333 0 0 -1.3333333 -12.2261371686 6.1018670141)" id="X8UJ0BnyXbBbcncJV6L56" clip-path="url(#CLIPPATH_32)"  >
<clipPath id="CLIPPATH_32" >
	<path transform="matrix(1 0 0 1 9.1696 4.5764) translate(-74.2285, -15)" id="path16" d="M 0 30 L 148.457 30 L 148.457 0 L 0 0 Z" stroke-linecap="round" />
</clipPath>
<path style="stroke: none; stroke-width: 1; stroke-dasharray: none; stroke-linecap: butt; stroke-dashoffset: 0; stroke-linejoin: miter; stroke-miterlimit: 4; fill: rgb(255,255,255); fill-rule: nonzero; opacity: 1;" vector-effect="non-scaling-stroke"  transform=" translate(0.032, 7.4075)" d="M 0 0 C -2.047 0 -3.396 -0.827 -3.606 -2.211 C -4.146 -5.563 -4.146 -9.252 -3.606 -12.602 C -3.396 -14.009 -2.082 -14.815000000000001 0 -14.815000000000001 C 1.998 -14.815000000000001 3.281 -14.008000000000001 3.521 -12.600000000000001 C 4.0889999999999995 -9.252000000000002 4.0889999999999995 -5.5630000000000015 3.521 -2.2150000000000016 C 3.28 -0.829 1.964 0 0 0" stroke-linecap="round" />
</g>
		<g transform="matrix(1.3333333 0 0 -1.3333333 6.0280264409 4.3922670569)" id="dRVbpEwnWKY8eEzjr9K8r" clip-path="url(#CLIPPATH_33)"  >
<clipPath id="CLIPPATH_33" >
	<path transform="matrix(1 0 0 1 -4.5210230494 3.2942) translate(-74.2285, -15)" id="path16" d="M 0 30 L 148.457 30 L 148.457 0 L 0 0 Z" stroke-linecap="round" />
</clipPath>
<path style="stroke: none; stroke-width: 1; stroke-dasharray: none; stroke-linecap: butt; stroke-dashoffset: 0; stroke-linejoin: miter; stroke-miterlimit: 4; fill: rgb(255,255,255); fill-rule: nonzero; opacity: 1;" vector-effect="non-scaling-stroke"  transform=" translate(4.1616769506, 0.781)" d="M 0 0 L -0.002 0 C -3.743 1.377 -5.6419999999999995 3.276 -6.661 4.295 C -6.7989999999999995 4.409 -6.866 4.583 -6.832 4.762 C -6.796 4.949999999999999 -6.647 5.114 -6.454 5.177 C -6.245 5.247 -6.026 5.193 -5.851999999999999 5.032 C -4.834 4.073 -4.225999999999999 3.55 -3.244999999999999 2.793 C -2.3839999999999995 2.121 -1.4209999999999992 1.499 -0.2129999999999992 1.499 C 0.9500000000000008 1.499 2.9250000000000007 1.832 3.0780000000000007 4.063000000000001 C 3.1310000000000007 4.817 2.8900000000000006 5.487 2.359000000000001 6.056000000000001 C 0.9480000000000008 7.571000000000001 -2.1949999999999994 8.108 -4.457999999999999 8.108 C -8.777999999999999 8.108 -11.794999999999998 6.380000000000001 -11.794999999999998 3.9060000000000006 C -11.794999999999998 1.7960000000000007 -10.503999999999998 0.6230000000000007 -7.610999999999998 0.09900000000000064 C -4.402999999999998 -0.4519999999999994 -2.7459999999999978 -2.8509999999999995 -2.044999999999998 -4.231 C -1.936999999999998 -4.436 -1.936999999999998 -4.652 -2.049999999999998 -4.821 C -2.158999999999998 -4.986 -2.363999999999998 -5.083 -2.568999999999998 -5.064 C -2.783999999999998 -5.045 -2.9669999999999983 -4.909 -3.0589999999999984 -4.699 C -4.197999999999999 -2.8309999999999995 -5.6709999999999985 -0.81 -8.561999999999998 -0.81 C -9.791999999999998 -0.81 -10.710999999999999 -1.159 -11.293999999999997 -1.847 C -11.901999999999997 -2.566 -12.121999999999996 -3.657 -11.910999999999998 -4.92 C -11.442999999999998 -7.806 -8.350999999999997 -9.67 -4.029999999999998 -9.67 C 0.26200000000000223 -9.67 3.4200000000000026 -7.771 3.6480000000000024 -5.051 C 3.897 -1.875 1.47 -0.523 0 0" stroke-linecap="round" />
</g>
		<g transform="matrix(1.3333333 0 0 -1.3333333 28.5576494672 4.3769767352)" id="USxhX3rSKToYlTNDZsmvf" clip-path="url(#CLIPPATH_34)"  >
<clipPath id="CLIPPATH_34" >
	<path transform="matrix(1 0 0 1 -21.4182407416 3.2827322585) translate(-74.2285, -15)" id="path16" d="M 0 30 L 148.457 30 L 148.457 0 L 0 0 Z" stroke-linecap="round" />
</clipPath>
<path style="stroke: none; stroke-width: 1; stroke-dasharray: none; stroke-linecap: butt; stroke-dashoffset: 0; stroke-linejoin: miter; stroke-miterlimit: 4; fill: rgb(255,255,255); fill-rule: nonzero; opacity: 1;" vector-effect="non-scaling-stroke"  transform=" translate(4.3552592584, 8.4556322585)" d="M 0 0 C -1.24 0.279 -2.424 0.417 -3.528 0.417 C -5.789 0.417 -7.720000000000001 -0.16199999999999998 -9.14 -1.293 C -11.001000000000001 -2.776 -11.950000000000001 -5.118 -11.962 -8.254 C -11.962 -11.187999999999999 -11.243 -13.329999999999998 -9.767 -14.800999999999998 C -8.017 -16.543 -5.193 -17.345 -0.9219999999999988 -17.328 C 0.4790000000000012 -17.328 1.5250000000000012 -16.988 2.188000000000001 -16.317999999999998 C 2.773000000000001 -15.725999999999997 3.064000000000001 -14.862999999999998 3.053000000000001 -13.754999999999997 C 3.0260000000000007 -11.385999999999997 1.7340000000000009 -10.205999999999998 -0.8969999999999994 -10.148999999999997 C -3.0909999999999993 -10.091999999999997 -5.1979999999999995 -8.986999999999998 -6.395999999999999 -7.264999999999997 C -6.504999999999999 -7.091999999999997 -6.534999999999999 -6.878999999999997 -6.484999999999999 -6.670999999999997 C -6.449 -6.520999999999996 -6.374999999999999 -6.397999999999997 -6.278999999999999 -6.325999999999997 C -6.153999999999999 -6.1889999999999965 -5.980999999999999 -6.112999999999997 -5.811999999999999 -6.117999999999997 C -5.653999999999999 -6.123999999999997 -5.515 -6.200999999999997 -5.419999999999999 -6.333999999999997 C -4.172999999999999 -8.068999999999997 -2.1479999999999992 -9.064999999999998 0.1330000000000009 -9.064999999999998 C 1.7830000000000008 -9.064999999999998 2.850000000000001 -7.310999999999998 3.142000000000001 -5.679999999999998 C 3.573 -3.386 2.773 -0.632 0 0" stroke-linecap="round" />
</g>
		<g transform="matrix(1.3333333 0 0 -1.3333333 52.0817988468 4.4309337226)" id="ECDitze_MogChFPiShPaK" clip-path="url(#CLIPPATH_35)"  >
<clipPath id="CLIPPATH_35" >
	<path transform="matrix(1 0 0 1 -39.0613532173 3.3232) translate(-74.2285, -15)" id="path16" d="M 0 30 L 148.457 30 L 148.457 0 L 0 0 Z" stroke-linecap="round" />
</clipPath>
<path style="stroke: none; stroke-width: 1; stroke-dasharray: none; stroke-linecap: butt; stroke-dashoffset: 0; stroke-linejoin: miter; stroke-miterlimit: 4; fill: rgb(255,255,255); fill-rule: nonzero; opacity: 1;" vector-effect="non-scaling-stroke"  transform=" translate(8.3703467827, -3.8765)" d="M 0 0 L -0.001 9.219 C -0.001 11.357999999999999 -1.369 12.794 -3.405 12.794 C -5.441 12.794 -6.81 11.358 -6.81 9.219000000000001 L -6.81 3.179 C -6.828 2.557 -7.219 2.229 -7.595 2.222 L -7.6049999999999995 2.222 C -7.9399999999999995 2.222 -8.312 2.479 -8.349 3.051 L -8.35 9.02 C -8.35 11.559999999999999 -9.724 12.794 -12.552 12.794 C -15.466 12.794 -16.837 11.594000000000001 -16.867 9.017 C -16.878 8.136 -16.892 7.311999999999999 -16.904 6.539999999999999 C -16.964 2.931999999999999 -17.004 0.5489999999999995 -16.589 -1.1590000000000007 C -16.171 -2.8010000000000006 -15.341999999999999 -3.7240000000000006 -13.729 -4.343000000000001 C -12.997 -4.641000000000001 -12.091999999999999 -4.785000000000001 -10.956 -4.785000000000001 C -9.645 -4.785000000000001 -8.209999999999999 -4.573000000000001 -7.061999999999999 -4.214000000000001 C -7.254999999999999 -3.7210000000000014 -7.454 -2.848000000000001 -7.547999999999999 -2.3300000000000014 C -7.593999999999999 -2.0570000000000013 -7.4239999999999995 -1.8070000000000013 -7.152999999999999 -1.7460000000000013 C -7.113999999999999 -1.7370000000000014 -7.074999999999998 -1.7320000000000013 -7.0379999999999985 -1.7320000000000013 C -6.816999999999998 -1.7320000000000013 -6.629999999999998 -1.8790000000000013 -6.5619999999999985 -2.1190000000000015 C -6.5299999999999985 -2.2350000000000017 -6.503999999999999 -2.3620000000000014 -6.474999999999999 -2.4990000000000014 C -6.244999999999998 -3.5710000000000015 -5.931999999999999 -5.041000000000001 -3.348999999999999 -5.041000000000001 C -2.718999999999999 -5.041000000000001 -2.079999999999999 -4.959000000000001 -1.141999999999999 -4.760000000000002 C 0.45400000000000107 -4.389000000000001 0.265000000000001 -2.5920000000000014 0.08100000000000107 -0.8550000000000018 C 0.05 -0.562 0.021 -0.274 0 0" stroke-linecap="round" />
</g>
		<g transform="matrix(1.3333333 0 0 -1.3333333 71.9969273925 -11.3162658838)" id="xJnDPuHP3_awrq4kEiX2H" clip-path="url(#CLIPPATH_36)"  >
<clipPath id="CLIPPATH_36" >
	<path transform="matrix(1 0 0 1 -53.9977 -8.4872) translate(-74.2285, -15)" id="path16" d="M 0 30 L 148.457 30 L 148.457 0 L 0 0 Z" stroke-linecap="round" />
</clipPath>
<path style="stroke: none; stroke-width: 1; stroke-dasharray: none; stroke-linecap: butt; stroke-dashoffset: 0; stroke-linejoin: miter; stroke-miterlimit: 4; fill: rgb(255,255,255); fill-rule: nonzero; opacity: 1;" vector-effect="non-scaling-stroke"  transform=" translate(-0.0005, -3.746)" d="M 0 0 C 1.973 0 3.519 1.608 3.519 3.661 C 3.519 5.702 1.875 7.492 0 7.492 C -1.691 7.492 -3.518 6.06 -3.518 3.746 C -3.518 1.287 -1.748 0 0 0" stroke-linecap="round" />
</g>
		<g transform="matrix(1.3333333 0 0 -1.3333333 71.9536773357 6.1018670141)" id="ARl_w4ws_Y1A9EIv8UjoH" clip-path="url(#CLIPPATH_37)"  >
<clipPath id="CLIPPATH_37" >
	<path transform="matrix(1 0 0 1 -53.9652624566 4.5764) translate(-74.2285, -15)" id="path16" d="M 0 30 L 148.457 30 L 148.457 0 L 0 0 Z" stroke-linecap="round" />
</clipPath>
<path style="stroke: none; stroke-width: 1; stroke-dasharray: none; stroke-linecap: butt; stroke-dashoffset: 0; stroke-linejoin: miter; stroke-miterlimit: 4; fill: rgb(255,255,255); fill-rule: nonzero; opacity: 1;" vector-effect="non-scaling-stroke"  transform=" translate(0.0319375434, 7.4075)" d="M 0 0 C -2.047 0 -3.396 -0.827 -3.605 -2.211 C -4.146 -5.563 -4.146 -9.252 -3.606 -12.602 C -3.396 -14.009 -2.082 -14.815000000000001 0 -14.815000000000001 C 1.999 -14.815000000000001 3.282 -14.008000000000001 3.521 -12.600000000000001 C 4.0889999999999995 -9.252000000000002 4.0889999999999995 -5.5630000000000015 3.521 -2.2150000000000016 C 3.28 -0.829 1.964 0 0 0" stroke-linecap="round" />
</g>
		<g transform="matrix(1.3333333 0 0 -1.3333333 89.1782551228 2.4741337715)" id="c7AxlD79tS0gMrDPqI8Vl" clip-path="url(#CLIPPATH_38)"  >
<clipPath id="CLIPPATH_38" >
	<path transform="matrix(1 0 0 1 -66.8836961199 1.8556) translate(-74.2285, -15)" id="path16" d="M 0 30 L 148.457 30 L 148.457 0 L 0 0 Z" stroke-linecap="round" />
</clipPath>
<path style="stroke: none; stroke-width: 1; stroke-dasharray: none; stroke-linecap: butt; stroke-dashoffset: 0; stroke-linejoin: miter; stroke-miterlimit: 4; fill: rgb(255,255,255); fill-rule: nonzero; opacity: 1;" vector-effect="non-scaling-stroke"  transform=" translate(4.4504038801, -2.493)" d="M 0 0 L -0.004 0 C -1.212 0.104 -2.459 -0.65 -3.101 -1.88 C -3.229 -2.137 -3.533 -2.245 -3.807 -2.129 C -4.034 -2.033 -4.22 -1.762 -4.091 -1.396 C -3.7460000000000004 -0.5489999999999999 -2.6500000000000004 0.51 -1.3730000000000002 0.8959999999999999 C -1.3120000000000003 1.325 -1.2820000000000003 1.8689999999999998 -1.2820000000000003 2.55 L -1.2820000000000003 2.742 L -0.3220000000000003 2.849 C 1.7879999999999996 3.0860000000000003 2.649 3.966 2.649 5.884 C 2.649 7.3580000000000005 2.226 8.351 1.3900000000000001 8.833 C 0.8290000000000001 9.159 -0.19499999999999984 9.297 -1.5709999999999997 9.231 L -1.7949999999999997 9.221 L -1.7949999999999997 9.531 C -2.0679999999999996 12.309000000000001 -3.1659999999999995 12.821000000000002 -5.229 12.821000000000002 C -7.379 12.821000000000002 -8.441 12.326000000000002 -8.661 9.514000000000001 C -8.676 9.332 -8.683 9.149 -8.689 8.967 C -8.696 8.779 -8.704 8.591 -8.719 8.403 L -8.731 8.238 L -8.895 8.208 C -10.774999999999999 7.872 -11.795 7.297000000000001 -11.795 5.229 C -11.795 3.752 -11.383 2.797 -10.535 2.3080000000000003 C -10.274 2.16 -9.73 1.91 -9.018 1.91 L -8.803 1.91 L -8.803 1.268 C -8.631 -4.394 -8.146 -7.835 -2.8920000000000012 -7.835 C -0.23300000000000143 -7.835 2.704999999999999 -6.667 2.8779999999999983 -4.103 C 2.9659999999999984 -2.8149999999999995 2.693999999999998 -1.7519999999999998 2.0939999999999985 -1.0309999999999997 C 1.588 -0.423 0.845 -0.057 0 0" stroke-linecap="round" />
</g>
		<g transform="matrix(1.3333333 0 0 -1.3333333 -78.9712021667 5e-7)" id="0bGFCVKkoriNcj025VmrQ" clip-path="url(#CLIPPATH_39)"  >
<clipPath id="CLIPPATH_39" >
	<path transform="matrix(1 0 0 1 59.2284 0) translate(-74.2285, -15)" id="path16" d="M 0 30 L 148.457 30 L 148.457 0 L 0 0 Z" stroke-linecap="round" />
</clipPath>
<path style="stroke: none; stroke-width: 1; stroke-dasharray: none; stroke-linecap: butt; stroke-dashoffset: 0; stroke-linejoin: miter; stroke-miterlimit: 4; fill: rgb(254,155,12); fill-rule: nonzero; opacity: 1;" vector-effect="non-scaling-stroke"  transform=" translate(4.5, 3)" d="M 0 0 C -0.828 0 -1.5 0.671 -1.5 1.5 C -1.5 2.329 -0.828 3 0 3 C 0.828 3 1.5 2.329 1.5 1.5 C 1.5 0.671 0.828 0 0 0 M 0 -9 C -0.828 -9 -1.5 -8.329 -1.5 -7.5 C -1.5 -6.671 -0.828 -6 0 -6 C 0.828 -6 1.5 -6.671 1.5 -7.5 C 1.5 -8.329 0.828 -9 0 -9 M -9 0 C -9.828 0 -10.5 0.671 -10.5 1.5 C -10.5 2.3289999999999997 -9.828 3 -9 3 C -8.172 3 -7.5 2.3289999999999997 -7.5 1.5 C -7.5 0.671 -8.172 0 -9 0 M -9 -9 C -9.828 -9 -10.5 -8.329 -10.5 -7.5 C -10.5 -6.671 -9.828 -6 -9 -6 C -8.172 -6 -7.5 -6.671 -7.5 -7.5 C -7.5 -8.329 -8.172 -9 -9 -9 M 10.5 -3 C 10.5 -1.208 9.713 0.3999999999999999 8.467 1.5 C 9.713000000000001 2.6 10.5 4.208 10.5 6 C 10.5 9.313 7.813000000000001 12 4.5 12 C 2.707 12 1.1 11.213 0 9.966 C -1.1 11.213 -2.707 12 -4.5 12 C -6.293 12 -7.9 11.213 -9 9.966 C -10.1 11.213 -11.707 12 -13.5 12 C -16.813 12 -19.5 9.313 -19.5 6 C -19.5 4.208 -18.713 2.6 -17.467 1.5 C -18.712999999999997 0.3999999999999999 -19.5 -1.2080000000000002 -19.5 -3 C -19.5 -4.792 -18.713 -6.4 -17.467 -7.5 C -18.712999999999997 -8.6 -19.5 -10.208 -19.5 -12 C -19.5 -15.313 -16.813 -18 -13.5 -18 C -11.707 -18 -10.1 -17.213 -9 -15.966000000000001 C -7.9 -17.213 -6.293 -18 -4.5 -18 C -2.707 -18 -1.1 -17.213 0 -15.966000000000001 C 1.1 -17.213 2.707 -18 4.5 -18 C 7.813000000000001 -18 10.5 -15.313 10.5 -12 C 10.5 -10.208 9.713 -8.6 8.467 -7.5 C 9.713000000000001 -6.4 10.5 -4.792 10.5 -3" stroke-linecap="round" />
</g>
</g>
</g>
</svg>