<svg xmlns="http://www.w3.org/2000/svg" viewBox="0 0 48 48" width="48" height="48" preserveAspectRatio="xMidYMid meet" style="width: 100%; height: 100%; transform: translate3d(0px, 0px, 0px);"><defs><clipPath id="__lottie_element_54"><rect width="48" height="48" x="0" y="0"></rect></clipPath><filter id="__lottie_element_56" filterUnits="objectBoundingBox" x="0%" y="0%" width="100%" height="100%"><feComponentTransfer in="SourceGraphic"><feFuncA type="table" tableValues="1.0 0.0"></feFuncA></feComponentTransfer></filter><mask id="__lottie_element_55" mask-type="alpha"><g filter="url(#__lottie_element_56)"><rect width="48" height="48" x="0" y="0" fill="#ffffff" opacity="0"></rect><g transform="matrix(1,0,0,1,24,24)" opacity="0.99" style="display: block;"><g opacity="1" transform="matrix(1,0,0,1,0,0)"><path fill="rgb(153,144,223)" fill-opacity="1" d=" M14.875,-15.937999725341797 C14.875,-15.937999725341797 15.04699993133545,-16.749000549316406 15.04699993133545,-16.749000549316406 C15.04699993133545,-16.749000549316406 14.906000137329102,-14.343999862670898 14.906000137329102,-14.343999862670898 C14.906000137329102,-14.343999862670898 14.906000137329102,-9.968999862670898 14.906000137329102,-9.968999862670898 C14.906000137329102,-9.968999862670898 14.875,-10.656000137329102 14.875,-10.656000137329102 C14.875,-10.656000137329102 14.875,-6.593999862670898 14.875,-6.593999862670898 C14.875,-6.593999862670898 14.906000137329102,-6.593999862670898 14.906000137329102,-6.593999862670898 C14.906000137329102,-6.593999862670898 14.843999862670898,-2.7809998989105225 14.843999862670898,-2.7809998989105225 C14.843999862670898,-2.7809998989105225 14.843999862670898,-2.7809998989105225 14.843999862670898,-2.7809998989105225 C14.843999862670898,-2.7809998989105225 14.843999862670898,0.5630000233650208 14.843999862670898,0.5630000233650208 C14.843999862670898,0.5630000233650208 14.875,0.531000018119812 14.875,0.531000018119812 C14.875,0.531000018119812 14.875,6.593999862670898 14.875,6.593999862670898 C14.875,6.593999862670898 14.875,7.688000202178955 14.875,7.688000202178955 C14.875,7.688000202178955 14.875,-15.937999725341797 14.875,-15.937999725341797z"></path><path stroke-linecap="butt" stroke-linejoin="miter" fill-opacity="0" stroke-miterlimit="4" stroke="rgb(48,110,43)" stroke-opacity="1" stroke-width="0" d=" M14.875,-15.937999725341797 C14.875,-15.937999725341797 15.04699993133545,-16.749000549316406 15.04699993133545,-16.749000549316406 C15.04699993133545,-16.749000549316406 14.906000137329102,-14.343999862670898 14.906000137329102,-14.343999862670898 C14.906000137329102,-14.343999862670898 14.906000137329102,-9.968999862670898 14.906000137329102,-9.968999862670898 C14.906000137329102,-9.968999862670898 14.875,-10.656000137329102 14.875,-10.656000137329102 C14.875,-10.656000137329102 14.875,-6.593999862670898 14.875,-6.593999862670898 C14.875,-6.593999862670898 14.906000137329102,-6.593999862670898 14.906000137329102,-6.593999862670898 C14.906000137329102,-6.593999862670898 14.843999862670898,-2.7809998989105225 14.843999862670898,-2.7809998989105225 C14.843999862670898,-2.7809998989105225 14.843999862670898,-2.7809998989105225 14.843999862670898,-2.7809998989105225 C14.843999862670898,-2.7809998989105225 14.843999862670898,0.5630000233650208 14.843999862670898,0.5630000233650208 C14.843999862670898,0.5630000233650208 14.875,0.531000018119812 14.875,0.531000018119812 C14.875,0.531000018119812 14.875,6.593999862670898 14.875,6.593999862670898 C14.875,6.593999862670898 14.875,7.688000202178955 14.875,7.688000202178955 C14.875,7.688000202178955 14.875,-15.937999725341797 14.875,-15.937999725341797z"></path></g></g></g></mask></defs><g clip-path="url(#__lottie_element_54)"><g transform="matrix(1,0,0,1,0,0)" opacity="1" style="display: block;"><g opacity="1" transform="matrix(1,0,0,1,0,0)"><g opacity="1" transform="matrix(1,0,0,1,2.75,9.75)"><g opacity="1" transform="matrix(1,0,0,1,21.25,14.75)"><path fill="rgb(254,155,12)" fill-opacity="1" d=" M-21,-14.5 C-21,-14.5 21,-14.5 21,-14.5 C21,-14.5 21,14.5 21,14.5 C21,14.5 -21,14.5 -21,14.5 C-21,14.5 -21,-14.5 -21,-14.5z"></path></g></g><g opacity="1" transform="matrix(1,0,0,1,18.75,30.75)"><g opacity="1" transform="matrix(1,0,0,1,5.25,5.25)"><path fill="rgb(254,155,12)" fill-opacity="1" d=" M0,-5 C-2.799999952316284,-5 -5,-2.799999952316284 -5,0 C-5,2.799999952316284 -2.799999952316284,5 0,5 C2.799999952316284,5 5,2.799999952316284 5,0 C5,-2.799999952316284 2.799999952316284,-5 0,-5z"></path></g></g><g opacity="1" transform="matrix(1,0,0,1,18.75,30.75)"><g opacity="1" transform="matrix(1,0,0,1,5.25,5.25)"><path fill="rgb(50,50,50)" fill-opacity="1" d=" M0,-3 C-1.7000000476837158,-3 -3,-1.7000000476837158 -3,0 C-3,1.7000000476837158 -1.7000000476837158,3 0,3 C1.7000000476837158,3 3,1.7000000476837158 3,0 C3,-1.7000000476837158 1.7000000476837158,-3 0,-3z"></path></g></g><g opacity="1" transform="matrix(1,0,0,1,5.75,6.75)"><g opacity="1" transform="matrix(1,0,0,1,18.25,14.75)"><path fill="rgb(214,204,199)" fill-opacity="1" d=" M16,-14.5 C16,-14.5 1,-11.5 1,-11.5 C1,-11.5 -1,-11.5 -1,-11.5 C-1,-11.5 -16,-14.5 -16,-14.5 C-16,-14.5 -18,-9.5 -18,-9.5 C-18,-9.5 -18,14.5 -18,14.5 C-18,14.5 18,14.5 18,14.5 C18,14.5 18,-9.5 18,-9.5 C18,-9.5 16,-14.5 16,-14.5z"></path></g></g><g opacity="1" transform="matrix(1,0,0,1,5.75,32.75)"><g opacity="1" transform="matrix(1,0,0,1,18.25,1.75)"><path fill="rgb(187,170,163)" fill-opacity="1" d=" M-16,-1.5 C-16,-1.5 -1,-1.5 -1,-1.5 C-1,-1.5 -1,1.5 -1,1.5 C-1,1.5 1,1.5 1,1.5 C1,1.5 1,-1.5 1,-1.5 C1,-1.5 16,-1.5 16,-1.5 C16,-1.5 18,1.5 18,1.5 C18,1.5 -18,1.5 -18,1.5 C-18,1.5 -16,-1.5 -16,-1.5z"></path></g></g><g opacity="1" transform="matrix(1,0,0,1,22.75,9.75)"><g opacity="1" transform="matrix(1,0,0,1,1.25,13.25)"><path fill="rgb(187,170,163)" fill-opacity="1" d=" M-1,-13 C-1,-13 1,-13 1,-13 C1,-13 1,13 1,13 C1,13 -1,13 -1,13 C-1,13 -1,-13 -1,-13z"></path></g></g><g opacity="1" transform="matrix(1,0,0,1,0,0)"><g opacity="1" transform="matrix(1,0,0,1,7.75,6.75)"><g opacity="1" transform="matrix(1,0,0,1,7.75,14.75)"><path fill="rgb(235,235,235)" fill-opacity="1" d=" M-7.5,-14.5 C-7.5,-14.5 7.5,-14.5 7.5,-11.5 C7.5,-11.5 7.5,14.5 7.5,14.5 C7.5,11.5 -7.5,11.5 -7.5,11.5 C-7.5,11.5 -7.5,-14.5 -7.5,-14.5z"></path></g></g></g><g opacity="1" transform="matrix(1,0,0,1,0,0)"><g opacity="1" transform="matrix(1,0,0,1,24.75,6.75)"><g opacity="1" transform="matrix(1,0,0,1,7.75,14.75)"><path fill="rgb(235,235,235)" fill-opacity="1" d=" M7.5,-14.5 C7.5,-14.5 -7.5,-14.5 -7.5,-11.5 C-7.5,-11.5 -7.5,14.5 -7.5,14.5 C-7.5,11.5 7.5,11.5 7.5,11.5 C7.5,11.5 7.5,-14.5 7.5,-14.5z"></path></g></g></g></g></g><g mask="url(#__lottie_element_55)" style="display: block;"><g transform="matrix(1,0,0,1,0,0)" opacity="1"><g opacity="1" transform="matrix(1,0,0,1,24.75,6.750000953674316)"><g opacity="1" transform="matrix(1,0,0,1,7.75,12.949999809265137)"><path fill="rgb(187,170,163)" fill-opacity="1" d=" M-5.5,1.7000000476837158 C-3.5999999046325684,1 0.699999988079071,0.4000000059604645 5.5,0.30000001192092896 C5.5,0.30000001192092896 5.5,-1.7000000476837158 5.5,-1.7000000476837158 C1.7999999523162842,-1.600000023841858 -2.5999999046325684,-1.2999999523162842 -5.5,-0.4000000059604645 C-5.5,-0.4000000059604645 -5.5,1.7000000476837158 -5.5,1.7000000476837158z"></path></g></g><g opacity="1" transform="matrix(1,0,0,1,24.75,6.75)"><g opacity="1" transform="matrix(1,0,0,1,7.75,16.950000762939453)"><path fill="rgb(187,170,163)" fill-opacity="1" d=" M-5.5,1.7000000476837158 C-3.5999999046325684,1 0.699999988079071,0.4000000059604645 5.5,0.30000001192092896 C5.5,0.30000001192092896 5.5,-1.7000000476837158 5.5,-1.7000000476837158 C1.7999999523162842,-1.600000023841858 -2.5999999046325684,-1.2999999523162842 -5.5,-0.4009999930858612 C-5.5,-0.4009999930858612 -5.5,1.7000000476837158 -5.5,1.7000000476837158z"></path></g></g><g opacity="1" transform="matrix(1,0,0,1,24.75,6.75)"><g opacity="1" transform="matrix(1,0,0,1,7.75,8.949999809265137)"><path fill="rgb(187,170,163)" fill-opacity="1" d=" M-5.5,1.7000000476837158 C-3.5999999046325684,1 0.699999988079071,0.4000000059604645 5.5,0.30000001192092896 C5.5,0.30000001192092896 5.5,-1.7000000476837158 5.5,-1.7000000476837158 C1.7999999523162842,-1.600000023841858 -2.5999999046325684,-1.2999999523162842 -5.5,-0.4000000059604645 C-5.5,-0.4000000059604645 -5.5,1.7000000476837158 -5.5,1.7000000476837158z"></path></g></g><g opacity="1" transform="matrix(1,0,0,1,24.75,6.750000476837158)"><g opacity="1" transform="matrix(1,0,0,1,7.75,4.849999904632568)"><path fill="rgb(187,170,163)" fill-opacity="1" d=" M-5.5,-0.30000001192092896 C-5.5,-0.30000001192092896 -5.5,1.7000000476837158 -5.5,1.7000000476837158 C-3.5999999046325684,1 0.699999988079071,0.4000000059604645 5.5,0.30000001192092896 C5.5,0.30000001192092896 5.5,-1.7000000476837158 5.5,-1.7000000476837158 C1.7999999523162842,-1.5 -2.5999999046325684,-1.2000000476837158 -5.5,-0.30000001192092896z"></path></g></g><g opacity="1" transform="matrix(1,0,0,1,24.75,6.75)"><g opacity="1" transform="matrix(1,0,0,1,4.75,21.149999618530273)"><path fill="rgb(187,170,163)" fill-opacity="1" d=" M2.5,-1.5 C0.6000000238418579,-1.3009999990463257 -1.100000023841858,-1 -2.5,-0.5 C-2.5,-0.5 -2.5,1.5 -2.5,1.5 C-1.5,1.100000023841858 0.30000001192092896,0.800000011920929 2.5,0.5 C2.5,0.5 2.5,-1.5 2.5,-1.5z"></path></g></g><g opacity="1" transform="matrix(1,0,0,1,7.75,6.750000953674316)"><g opacity="1" transform="matrix(1,0,0,1,7.75,12.949999809265137)"><path fill="rgb(187,170,163)" fill-opacity="1" d=" M5.5,1.7000000476837158 C3.5999999046325684,1 -0.699999988079071,0.4000000059604645 -5.5,0.30000001192092896 C-5.5,0.30000001192092896 -5.5,-1.7000000476837158 -5.5,-1.7000000476837158 C-1.7999999523162842,-1.600000023841858 2.5999999046325684,-1.2999999523162842 5.5,-0.4000000059604645 C5.5,-0.4000000059604645 5.5,1.7000000476837158 5.5,1.7000000476837158z"></path></g></g><g opacity="1" transform="matrix(1,0,0,1,7.75,6.75)"><g opacity="1" transform="matrix(1,0,0,1,7.75,16.950000762939453)"><path fill="rgb(187,170,163)" fill-opacity="1" d=" M5.5,1.7000000476837158 C3.5999999046325684,1 -0.699999988079071,0.4000000059604645 -5.5,0.30000001192092896 C-5.5,0.30000001192092896 -5.5,-1.7000000476837158 -5.5,-1.7000000476837158 C-1.7999999523162842,-1.600000023841858 2.5999999046325684,-1.2999999523162842 5.5,-0.4009999930858612 C5.5,-0.4009999930858612 5.5,1.7000000476837158 5.5,1.7000000476837158z"></path></g></g><g opacity="1" transform="matrix(1,0,0,1,7.75,6.75)"><g opacity="1" transform="matrix(1,0,0,1,7.75,20.950000762939453)"><path fill="rgb(187,170,163)" fill-opacity="1" d=" M5.5,1.7000000476837158 C3.5999999046325684,1 -0.699999988079071,0.39899998903274536 -5.5,0.30000001192092896 C-5.5,0.30000001192092896 -5.5,-1.7000000476837158 -5.5,-1.7000000476837158 C-1.7999999523162842,-1.6009999513626099 2.5999999046325684,-1.2999999523162842 5.5,-0.4009999930858612 C5.5,-0.4009999930858612 5.5,1.7000000476837158 5.5,1.7000000476837158z"></path></g></g><g opacity="1" transform="matrix(1,0,0,1,7.75,6.75)"><g opacity="1" transform="matrix(1,0,0,1,7.75,8.949999809265137)"><path fill="rgb(187,170,163)" fill-opacity="1" d=" M5.5,1.7000000476837158 C3.5999999046325684,1 -0.699999988079071,0.4000000059604645 -5.5,0.30000001192092896 C-5.5,0.30000001192092896 -5.5,-1.7000000476837158 -5.5,-1.7000000476837158 C-1.7999999523162842,-1.600000023841858 2.5999999046325684,-1.2999999523162842 5.5,-0.4000000059604645 C5.5,-0.4000000059604645 5.5,1.7000000476837158 5.5,1.7000000476837158z"></path></g></g><g opacity="1" transform="matrix(1,0,0,1,7.75,6.750000476837158)"><g opacity="1" transform="matrix(1,0,0,1,7.75,4.849999904632568)"><path fill="rgb(187,170,163)" fill-opacity="1" d=" M5.5,-0.30000001192092896 C5.5,-0.30000001192092896 5.5,1.7000000476837158 5.5,1.7000000476837158 C3.5999999046325684,1 -0.699999988079071,0.4000000059604645 -5.5,0.30000001192092896 C-5.5,0.30000001192092896 -5.5,-1.7000000476837158 -5.5,-1.7000000476837158 C-1.7999999523162842,-1.5 2.5999999046325684,-1.2000000476837158 5.5,-0.30000001192092896z"></path></g></g></g></g></g></svg>