<?xml version="1.0" encoding="UTF-8" standalone="no"?>
<svg
   xmlns:dc="http://purl.org/dc/elements/1.1/"
   xmlns:cc="http://creativecommons.org/ns#"
   xmlns:rdf="http://www.w3.org/1999/02/22-rdf-syntax-ns#"
   xmlns:svg="http://www.w3.org/2000/svg"
   xmlns="http://www.w3.org/2000/svg"
   viewBox="0 0 133.33333 133.33333"
   height="133.33333"
   width="133.33333"
   xml:space="preserve"
   id="svg2"
   version="1.1"><metadata
     id="metadata8"><rdf:RDF><cc:Work
         rdf:about=""><dc:format>image/svg+xml</dc:format><dc:type
           rdf:resource="http://purl.org/dc/dcmitype/StillImage" /></cc:Work></rdf:RDF></metadata><defs
     id="defs6"><clipPath
       id="clipPath18"
       clipPathUnits="userSpaceOnUse"><path
         id="path16"
         d="M 0,100 H 100 V 0 H 0 Z" /></clipPath></defs><g
     transform="matrix(1.3333333,0,0,-1.3333333,0,133.33333)"
     id="g10"><g
       id="g12"><g
         clip-path="url(#clipPath18)"
         id="g14"><g
           transform="translate(65,30)"
           id="g20"><path
             id="path22"
             style="fill:#fe9b0c;fill-opacity:1;fill-rule:nonzero;stroke:none"
             d="m 0,0 c -2.762,0 -5,2.238 -5,5 0,2.762 2.238,5 5,5 C 2.762,10 5,7.762 5,5 5,2.238 2.762,0 0,0 m -30,30 c -2.762,0 -5,2.238 -5,5 0,2.762 2.238,5 5,5 2.762,0 5,-2.238 5,-5 0,-2.762 -2.238,-5 -5,-5 m 0,-30 c -2.762,0 -5,2.238 -5,5 0,2.762 2.238,5 5,5 2.762,0 5,-2.238 5,-5 0,-2.762 -2.238,-5 -5,-5 m 52.209,33.095 c 0,0 -4.475,-4.889 -14.355,-2.709 C 6.363,30.714 5.073,31.268 3.95,31.967 3.035,30.778 1.615,30 0,30 c -2.762,0 -5,2.238 -5,5 0,2.054 1.24,3.814 3.011,4.584 -1.063,2.709 -1.3,4.939 -1.3,4.939 -11.011,1.92 -12.365,9.098 -12.365,9.098 -8.254,-3.805 -14.939,0.083 -19.227,5.087 -2.55,2.976 -2.883,7.056 -2.736,9.883 C -39.901,69.5 -42.392,70 -45,70 -56.046,70 -65,61.046 -65,50 -65,44.024 -62.376,38.665 -58.222,35 -62.376,31.335 -65,25.976 -65,20 -65,14.024 -62.376,8.665 -58.222,5 -62.376,1.335 -65,-4.024 -65,-10 c 0,-11.046 8.954,-20 20,-20 5.976,0 11.335,2.624 15,6.778 3.665,-4.154 9.024,-6.778 15,-6.778 5.976,0 11.335,2.624 15,6.778 C 3.665,-27.376 9.024,-30 15,-30 c 11.046,0 20,8.954 20,20 0,5.976 -2.624,11.335 -6.778,15 4.154,3.665 6.778,9.024 6.778,15 0,2.998 -0.661,5.84 -1.844,8.392 -6.892,-0.076 -10.947,4.703 -10.947,4.703" /></g><g
           transform="translate(45.9121,89.3584)"
           id="g24"><path
             id="path26"
             style="fill:#fe9b0c;fill-opacity:1;fill-rule:nonzero;stroke:none"
             d="m 0,0 c 0,-1.222 -0.991,-2.212 -2.213,-2.212 -1.222,0 -2.212,0.99 -2.212,2.212 0,1.223 0.99,2.213 2.212,2.213 C -0.991,2.213 0,1.223 0,0" /></g><g
           transform="translate(53.3184,91.5713)"
           id="g28"><path
             id="path30"
             style="fill:#fe9b0c;fill-opacity:1;fill-rule:nonzero;stroke:none"
             d="m 0,0 c 0,-0.611 -0.495,-1.106 -1.105,-1.106 -0.612,0 -1.107,0.495 -1.107,1.106 0,0.611 0.495,1.106 1.107,1.106 C -0.495,1.106 0,0.611 0,0" /></g><g
           transform="translate(94.9531,65.8721)"
           id="g32"><path
             id="path34"
             style="fill:#fe9b0c;fill-opacity:1;fill-rule:nonzero;stroke:none"
             d="m 0,0 c 0,-0.897 -0.728,-1.625 -1.625,-1.625 -0.897,0 -1.624,0.728 -1.624,1.625 0,0.897 0.727,1.625 1.624,1.625 C -0.728,1.625 0,0.897 0,0" /></g><g
           transform="translate(87.4111,67.9023)"
           id="g36"><path
             id="path38"
             style="fill:#fe9b0c;fill-opacity:1;fill-rule:nonzero;stroke:none"
             d="m 0,0 c 0,-0.42 -0.341,-0.761 -0.761,-0.761 -0.42,0 -0.76,0.341 -0.76,0.761 0,0.42 0.34,0.76 0.76,0.76 C -0.341,0.76 0,0.42 0,0" /></g></g></g></g></svg>